<?xml version="1.0" standalone="no"?>
<!DOCTYPE svg PUBLIC "-//W3C//DTD SVG 20010904//EN"
 "http://www.w3.org/TR/2001/REC-SVG-20010904/DTD/svg10.dtd">
<svg version="1.0" xmlns="http://www.w3.org/2000/svg"
 width="64.000000pt" height="63.000000pt" viewBox="0 0 64.000000 63.000000"
 preserveAspectRatio="xMidYMid meet">

<g transform="translate(0.000000,63.000000) scale(0.100000,-0.100000)"
fill="#000000" stroke="none">
<path d="M280 486 l-32 -96 -98 0 c-54 0 -101 -4 -104 -9 -3 -5 30 -35 74 -68
43 -32 79 -62 80 -68 0 -5 -13 -52 -29 -103 -16 -50 -26 -94 -21 -97 4 -2 44
23 89 56 l81 61 81 -61 c45 -33 85 -58 89 -56 4 3 -6 50 -23 105 -17 55 -29
101 -26 103 85 59 158 120 154 127 -4 6 -51 10 -105 10 l-99 0 -28 92 c-16 50
-34 93 -40 95 -6 2 -24 -36 -43 -91z m71 -43 l24 -78 84 -5 84 -5 -56 -38
c-82 -57 -81 -53 -53 -143 14 -43 24 -79 23 -80 -1 -1 -33 20 -70 48 l-68 51
-37 -30 c-20 -16 -51 -39 -69 -51 l-32 -22 25 77 c13 43 24 81 24 85 0 4 -30
30 -66 57 l-66 50 84 3 83 3 25 78 c14 42 27 77 31 77 3 0 16 -35 30 -77z"/>
</g>
</svg>
